#!OML:ASF Y:\EmotionMaleHayes\Project 1\Capture day 1\Session 1\Male1.ASF
:FULLY-SPECIFIED
:DEGREES
233
root -28.706 17.1222 1.03092 21.1687 87.6086 19.8058
lowerback 4.05712 1.74245 -4.53012
upperback 0.873908 2.14031 -0.342156
thorax -1.52675 1.09365 2.06998
lowerneck -21.7853 2.13749 4.94128
upperneck 25.975 1.51435 0.0976074
head 12.2532 1.29 -0.516512
rclavicle 1.73937e-016 -1.59028e-015
rhumerus -36.7222 7.19551 -90.503
rradius 34.208
rwrist 0.354977
rhand -13.2024 -28.8069
rfingers 7.12502
rthumb 12.8981 -58.3883
lclavicle 1.73937e-016 -1.59028e-015
lhumerus -30.8373 -12.1112 92.4316
lradius 24.7737
lwrist -9.04386
lhand -21.9215 -25.5743
lfingers 7.12502
lthumb 4.48461 4.35827
rfemur 8.43916 -5.51893 13.71
rtibia 1.91561
rfoot -16.3014 -5.56616
rtoes 4.62722
lfemur 10.0689 0.351267 -15.6158
ltibia -2.10371
lfoot -10.0737 4.75213
ltoes -15.7929
234
root -28.7055 17.1199 1.03648 26.8705 87.6441 25.487
lowerback 4.03534 1.74626 -4.77527
upperback 0.874644 2.13623 -0.413055
thorax -1.51954 1.09278 2.13491
lowerneck -21.9304 2.08013 5.01479
upperneck 26.1036 1.40911 0.0590042
head 12.3313 1.24837 -0.559431
rclavicle 6.33626e-015 -6.95746e-015
rhumerus -36.8773 7.34659 -90.5466
rradius 34.443
rwrist 0.229733
rhand -13.6985 -28.028
rfingers 7.12502
rthumb 12.4198 -57.639
lclavicle 6.33626e-015 -6.95746e-015
lhumerus -30.8763 -12.5624 92.54
lradius 24.7942
lwrist -8.8774
lhand -23.1795 -25.6196
lfingers 7.12502
lthumb 3.26971 4.33509
rfemur 8.35387 -5.63931 13.461
rtibia 2.11099
rfoot -16.3718 -5.60253
rtoes 4.11621
lfemur 10.0172 0.610534 -15.7256
ltibia -2.05417
lfoot -10.0716 4.38373
ltoes -17.8051
235
root -28.7033 17.121 1.04222 27.6291 87.7782 26.2338
lowerback 4.01581 1.75184 -4.73223
upperback 0.856183 2.14554 -0.445167
thorax -1.52555 1.09762 2.07754
lowerneck -21.9297 1.99918 4.99289
upperneck 26.1519 1.27676 0.148814
head 12.3461 1.20199 -0.543658
rclavicle -1.06847e-014 9.93923e-015
rhumerus -37.1188 7.51859 -90.613
rradius 34.7428
rwrist 0.00121559
rhand -13.285 -28.7715
rfingers 7.12502
rthumb 12.8185 -58.3579
lclavicle -1.06847e-014 9.93923e-015
lhumerus -30.9189 -13.2107 92.6923
lradius 24.6267
lwrist -8.87005
lhand -22.902 -26.2305
lfingers 7.12502
lthumb 3.53772 3.71988
rfemur 8.28359 -5.62668 13.5551
rtibia 2.2773
rfoot -16.5069 -5.76552
rtoes 4.43213
lfemur 10.0243 0.7366 -15.606
ltibia -2.08606
lfoot -9.92155 4.21253
ltoes -21.3442
236
root -28.7022 17.1227 1.05037 23.3858 87.9991 21.9662
lowerback 4.01077 1.71259 -4.54476
upperback 0.83678 2.10073 -0.380988
thorax -1.53535 1.07461 2.04126
lowerneck -21.904 1.93531 4.87563
upperneck 26.1422 1.1724 0.341736
head 12.3324 1.17078 -0.468489
rclavicle -1.22501e-014 3.57812e-015
rhumerus -37.3783 7.9228 -90.7015
rradius 35.1827
rwrist -0.314338
rhand -13.2671 -28.6506
rfingers 7.12502
rthumb 12.8357 -58.236
lclavicle -1.22501e-014 3.57812e-015
lhumerus -31.0272 -14.1575 93.0511
lradius 24.524
lwrist -8.85407
lhand -24.5833 -26.092
lfingers 7.12502
lthumb 1.91398 3.87918
rfemur 8.21088 -5.59911 13.9286
rtibia 2.40355
rfoot -16.6773 -6.00793
rtoes 5.31752
lfemur 9.95123 1.02519 -15.1624
ltibia -1.99822
lfoot -9.86064 3.911
ltoes -23.4106
237
root -28.7028 17.1227 1.06051 22.9594 88.1687 21.5083
lowerback 3.97071 1.63165 -4.58444
upperback 0.864909 1.99496 -0.337083
thorax -1.47948 1.02049 2.11645
lowerneck -21.9133 1.89854 4.76064
upperneck 26.0787 1.09398 0.557872
head 12.3056 1.15227 -0.380716
rclavicle 6.93262e-015 6.75868e-015
rhumerus -37.495 8.36822 -90.7767
rradius 35.5523
rwrist -0.760978
rhand -12.9773 -28.6176
rfingers 7.12502
rthumb 13.1151 -58.1852
lclavicle 6.93262e-015 6.75868e-015
lhumerus -31.0602 -14.8901 93.2703
lradius 24.5895
lwrist -8.87862
lhand -23.8618 -25.5649
lfingers 7.12502
lthumb 2.61081 4.39885
rfemur 8.12692 -5.71698 14.0615
rtibia 2.55402
rfoot -16.7931 -6.11582
rtoes 5.55918
lfemur 9.89676 1.11116 -14.9563
ltibia -2.02032
lfoot -9.87119 3.70518
ltoes -23.2726
238
root -28.6996 17.1227 1.06841 31.7002 88.2695 30.2531
lowerback 3.87151 1.54104 -4.89577
upperback 0.967453 1.87197 -0.351091
thorax -1.31869 0.95579 2.28756
lowerneck -22.024 1.84106 4.58318
upperneck 26.0765 1.00536 0.761091
head 12.3224 1.1222 -0.288148
rclavicle 8.92046e-015 9.93923e-016
rhumerus -37.6283 8.93893 -90.8374
rradius 36.087
rwrist -1.29898
rhand -12.3324 -29.3963
rfingers 7.12502
rthumb 13.7366 -58.9229
lclavicle 8.92046e-015 9.93923e-016
lhumerus -30.7643 -16.1224 93.6
lradius 24.2496
lwrist -8.55774
lhand -24.6615 -25.1331
lfingers 7.12502
lthumb 1.8385 4.8387
rfemur 8.1058 -5.89853 13.8092
rtibia 2.70716
rfoot -16.9125 -6.05532
rtoes 5.90501
lfemur 9.91622 1.26521 -15.0987
ltibia -2.11569
lfoot -9.78205 3.30417
ltoes -23.1024
239
root -28.6952 17.1225 1.075 38.7113 88.3706 37.2912
lowerback 3.80552 1.48128 -5.09151
upperback 1.07013 1.79363 -0.328184
thorax -1.17641 0.912713 2.42827
lowerneck -22.1561 1.72064 4.38379
upperneck 26.1603 0.86035 0.880882
head 12.3766 1.05601 -0.232386
rclavicle 1.65737e-014 -1.17283e-014
rhumerus -37.9525 9.75294 -90.9473
rradius 36.9995
rwrist -1.87588
rhand -11.8809 -30.4543
rfingers 7.12502
rthumb 14.1718 -59.9509
lclavicle 1.65737e-014 -1.17283e-014
lhumerus -30.6565 -17.5676 94.001
lradius 24.265
lwrist -8.35638
lhand -23.2894 -24.8262
lfingers 7.12502
lthumb 3.16366 5.13005
rfemur 8.03198 -5.84888 13.7457
rtibia 2.99015
rfoot -17.1321 -6.05915
rtoes 6.62163
lfemur 9.95236 1.49141 -15.1418
ltibia -2.14457
lfoot -9.73554 2.90676
ltoes -23.6156
